<svg id="PRINT" xmlns="http://www.w3.org/2000/svg" viewBox="0 0 481.58 441.6"><defs><style>.cls-1{fill:#194632;}</style></defs><g id="CUSTOM-group"><g id="CUSTOM-groups"><path class="cls-1" d="M399.05,1a73.15,73.15,0,0,0-12-1H149.83c-12.06,0-23.09,8-25.65,19.8A25.56,25.56,0,0,0,149.06,51h7c6.22,15.3,6.21,30.33,0,45.73H149.8c-11.8,0-22.65,7.69-25.46,19.16a25.6,25.6,0,0,0,1.91,17.81H106a41.21,41.21,0,0,0-41.22,41.2v78.58A41.06,41.06,0,0,0,75,280.58H25.85C14,280.58,3.14,288.45.61,300a25.12,25.12,0,0,0,24.46,30.67H37.48c8.59,20.33,8.59,40.27,0,60.7H25.07A25.12,25.12,0,0,0,0,416.57a25.78,25.78,0,0,0,.63,5.54c2.53,11.6,13.38,19.47,25.23,19.47H440.34a41.21,41.21,0,0,0,41.22-41.2V321.8a41.26,41.26,0,0,0-25.09-37.94,25.07,25.07,0,0,0,4.1-18.54c-2-12.2-13.19-20.79-25.56-20.79H423.46c-8.6-20.43-8.61-40.37,0-60.7h11.63c11.85,0,22.71-7.88,25.23-19.46a25.12,25.12,0,0,0-24.47-30.66h-5.46a75.18,75.18,0,0,0,8.86-7.57A73.84,73.84,0,0,0,399.05,1Zm-374,293.73H286.23v21.93H187.41a7.22,7.22,0,0,0-7,4.76,7.07,7.07,0,0,0,6.69,9.35h99.12V353.9c-.47,6.92,2.91,9.66,5,10.69a8.38,8.38,0,0,0,3.71.86c2.2,0,5-.84,8.09-3.69l.11-.1,19.72-18.81,19.72,18.81.11.1c5.32,4.87,9.65,3.87,11.76,2.84s5.47-3.75,5-10.68V330.71h69.88a2,2,0,0,1,2,2v56.62a2,2,0,0,1-2,2H52.6c7.91-23.44,5.09-37.4,5.09-37.4a91.48,91.48,0,0,0-5.08-23.22h99.48a7.22,7.22,0,0,0,7-4.76,7.07,7.07,0,0,0-6.69-9.35H25.62c-5.12,0-10-3.24-11.18-8.22a11,11,0,0,1,8-13.34A10.59,10.59,0,0,1,25.07,294.71Zm378.16-87.56H237.13a7.22,7.22,0,0,0-7,4.75,7.08,7.08,0,0,0,6.69,9.36H286.2v23.29H116.94a2,2,0,0,1-2-2V185.87a2,2,0,0,1,2-2h291.4a91.61,91.61,0,0,0-5.11,23.3Zm-43.72,14.11h43.73a92.07,92.07,0,0,0,5.12,23.29H359.51Zm-59.2,0H345.4V344.82L327.76,328a7.06,7.06,0,0,0-9.74,0l-17.64,16.82-.05-123.56ZM446.82,73.88A59.92,59.92,0,0,1,387,133.71H149.4a11.41,11.41,0,1,1-.34-22.82H387a37.05,37.05,0,0,0,37-37.1,37.69,37.69,0,0,0-.81-7.64C419.63,48.84,403.54,37,385.87,37H314.11a7.19,7.19,0,0,0-7,4.76,7.07,7.07,0,0,0,6.69,9.35h72.35c10.84,0,20.83,7.16,23.16,17.75a22.92,22.92,0,0,1-22.32,28H171a71.86,71.86,0,0,0,0-45.73H278.8a7.22,7.22,0,0,0,7-4.75A7.08,7.08,0,0,0,279.11,37H149.46a11.62,11.62,0,0,1-11.2-7.7,11.43,11.43,0,0,1,10.8-15.11H387a59.85,59.85,0,0,1,59.8,59.77Zm-11,95.84H116.94a16.15,16.15,0,0,0-16.15,16.15v56.62a16.15,16.15,0,0,0,16.15,16.15H286.22v21.94H106a27.11,27.11,0,0,1-27.11-27.11V174.9A27.11,27.11,0,0,1,106,147.79H435.31c5.12,0,10,3.24,11.17,8.22a11,11,0,0,1-10.63,13.7Zm0,88.92a11,11,0,0,1,10.63,13.72c-1.22,5-6.05,8.22-11.17,8.22H359.5V258.64ZM25.07,427.47a11,11,0,0,1-10.63-13.71c1.22-5,6-8.22,11.14-8.22H429.41a16.12,16.12,0,0,0,16.11-16.13V332.77a16.15,16.15,0,0,0-16.15-16.15H359.49V294.71h80.87a27.07,27.07,0,0,1,27.09,27.07h0v78.59a27.19,27.19,0,0,1-27.12,27.11Z" transform="translate(0.02 0.02)"/></g></g></svg>