<svg id="Слой_1" data-name="Слой 1" xmlns="http://www.w3.org/2000/svg" xmlns:xlink="http://www.w3.org/1999/xlink" viewBox="0 0 551.08 639.68"><defs><style>.cls-1{fill:url(#Безымянный_градиент_8);}.cls-2{fill:url(#Безымянный_градиент_16);}.cls-3{fill:url(#Безымянный_градиент_15);}</style><linearGradient id="Безымянный_градиент_8" x1="68.32" y1="298.09" x2="641.34" y2="298.09" gradientTransform="translate(221.99 791.4) rotate(-120)" gradientUnits="userSpaceOnUse"><stop offset="0" stop-color="#255053"/><stop offset="0.99" stop-color="#25947b"/></linearGradient><linearGradient id="Безымянный_градиент_16" x1="369.05" y1="344.09" x2="696.71" y2="344.09" gradientTransform="translate(393.58 807.64) rotate(-140)" gradientUnits="userSpaceOnUse"><stop offset="0" stop-color="#7ad49a"/><stop offset="0.99" stop-color="#397d6f"/></linearGradient><linearGradient id="Безымянный_градиент_15" x1="6.1" y1="305.6" x2="166.09" y2="305.6" gradientTransform="translate(393.58 807.64) rotate(-140)" gradientUnits="userSpaceOnUse"><stop offset="0" stop-color="#396d6f"/><stop offset="0.99" stop-color="#7ad49a"/></linearGradient></defs><path class="cls-1" d="M217,643c-50.59-14.12-118.71-58.2-134.4-126.79-10.57-46.16,6.52-86.41,9-92,28.23-64.17,82.49-57.32,103.12-107.82,23.15-56.65-35.18-89.6-24-161.64,10.33-66.8,75-132.07,146-143.16C445.38-8.6,533.32,159.15,540.48,173.27c6.58,13,62.13,127,14.41,255C502.11,569.72,341.87,677.81,217,643Z" transform="translate(-54.03 -9.86)"/><path class="cls-2" d="M243.22,320.41c-32.59,7.25-95.14,21.15-140.41-14.68C40.25,256.2,39.87,134.82,90.23,88.91c81-73.83,308.61,33.63,310.35,115.52C401.71,257.3,308.84,305.82,243.22,320.41Z" transform="translate(-54.03 -9.86)"/><path class="cls-3" d="M605,512.84c2.87,47.22-37.86,86.5-82.62,86-36.15-.39-68.9-26.66-77-60.69C434,490.61,473.12,437.45,523.8,436.9,564.27,436.46,602.35,469.67,605,512.84Z" transform="translate(-54.03 -9.86)"/></svg>