<svg id="PRINT" xmlns="http://www.w3.org/2000/svg" viewBox="0 0 481.57 441.58"><g id="CUSTOM-group"><g id="CUSTOM-groups"><path d="M408.05,31.27a73.33,73.33,0,0,0-12-1H158.83c-12.06,0-23.09,8-25.65,19.8a25.57,25.57,0,0,0,24.88,31.23h7c6.22,15.3,6.21,30.33,0,45.73H158.8c-11.8,0-22.65,7.69-25.46,19.16A25.62,25.62,0,0,0,135.25,164H115a41.21,41.21,0,0,0-41.22,41.22v78.56A41.06,41.06,0,0,0,84,310.87H34.85c-11.86,0-22.71,7.87-25.24,19.46A25.12,25.12,0,0,0,34.07,361H46.48c8.59,20.33,8.59,40.27,0,60.7H34.07a25.12,25.12,0,0,0-24.45,30.7C12.15,464,23,471.87,34.85,471.87H449.34a41.21,41.21,0,0,0,41.22-41.22V352.09a41.26,41.26,0,0,0-25.09-37.94,25.08,25.08,0,0,0,4.1-18.54c-2-12.2-13.19-20.79-25.56-20.79H432.46c-8.6-20.43-8.61-40.37,0-60.7h11.63c11.85,0,22.71-7.88,25.23-19.46A25.12,25.12,0,0,0,444.85,164h-5.46a75.29,75.29,0,0,0,8.86-7.57,73.84,73.84,0,0,0-40.2-125.13ZM34.07,325H295.23v21.93H196.41a7.22,7.22,0,0,0-7,4.76,7.07,7.07,0,0,0,6.69,9.35h99.12v23.15c-.47,6.92,2.91,9.66,5,10.69a8.45,8.45,0,0,0,3.71.86c2.2,0,5-.84,8.09-3.69l.11-.1,19.72-18.81,19.72,18.81.11.1c5.32,4.87,9.65,3.87,11.76,2.84s5.47-3.75,5-10.68V361h69.88a2,2,0,0,1,2,2v56.62a2,2,0,0,1-2,2H61.6c7.91-23.44,5.09-37.4,5.09-37.4A91.43,91.43,0,0,0,61.61,361h99.48a7.22,7.22,0,0,0,7-4.76,7.07,7.07,0,0,0-6.69-9.35H34.62c-5.12,0-10-3.24-11.18-8.22A11,11,0,0,1,34.07,325Zm378.16-87.56H246.13a7.22,7.22,0,0,0-7,4.75,7.09,7.09,0,0,0,6.69,9.36H295.2v23.29H125.94a2,2,0,0,1-2-2V216.16a2,2,0,0,1,2-2h291.4a92,92,0,0,0-5.11,23.3Zm-43.72,14.11h43.73a92.16,92.16,0,0,0,5.12,23.29H368.51Zm-59.2,0H354.4l0,123.56-17.64-16.82a7.06,7.06,0,0,0-9.74,0l-17.64,16.82-.05-123.56ZM455.82,104.17A59.92,59.92,0,0,1,396,164H158.4a11.41,11.41,0,1,1-.34-22.82H396a37.05,37.05,0,0,0,36.19-44.74c-3.56-17.31-19.65-29.2-37.32-29.2H323.11a7.2,7.2,0,0,0-7,4.76,7.07,7.07,0,0,0,6.69,9.35h72.35c10.84,0,20.83,7.16,23.16,17.75a22.94,22.94,0,0,1-22.32,28h-216a71.79,71.79,0,0,0,0-45.73H287.8a7.22,7.22,0,0,0,7-4.75,7.08,7.08,0,0,0-6.69-9.36H158.46c-5,0-9.69-3-11.2-7.7a11.43,11.43,0,0,1,10.8-15.11H396a59.85,59.85,0,0,1,59.8,59.77Zm-11,95.84H125.94a16.15,16.15,0,0,0-16.15,16.15v56.62a16.15,16.15,0,0,0,16.15,16.15H295.22v21.94H115a27.11,27.11,0,0,1-27.11-27.11V205.19A27.11,27.11,0,0,1,115,178.08H444.31c5.12,0,10,3.24,11.17,8.22A11,11,0,0,1,444.85,200Zm0,88.92a11,11,0,0,1,10.63,13.72c-1.22,5-6.05,8.22-11.17,8.22H368.5V288.93ZM34.07,457.76a11,11,0,0,1-10.63-13.71c1.22-5,6-8.22,11.14-8.22H438.41a16.12,16.12,0,0,0,16.11-16.15V363.06a16.15,16.15,0,0,0-16.15-16.15H368.49V325h80.87a27.08,27.08,0,0,1,27.09,27.08v78.59a27.19,27.19,0,0,1-27.12,27.11Z" transform="translate(-9 -30.29)"/></g></g></svg>